<svg xmlns="http://www.w3.org/2000/svg" class="team-modal" width="655.92658" height="362.86772" fill-rule="evenodd" clip-rule="evenodd" image-rendering="optimizeQuality" shape-rendering="geometricPrecision" text-rendering="geometricPrecision" version="1.1" viewBox="0 0 6832.7998 3779.9046" xml:space="preserve">
  <defs/>
  <defs id="defs12">
    <filter id="filter29" color-interpolation-filters="sRGB">
      <feGaussianBlur id="feGaussianBlur27" result="blur" stdDeviation="67.72"/>
    </filter>
  </defs>
  <path class="team-modal_back" fill="#fff" fill-rule="evenodd" stroke-width="1" d="M2041.4 3336.6216c-424 0-760.9999-56.9999-1066.99995-212l-90.0001-54c-12.9999-10-26.99995-19.0001-40.99995-29-15-12-25.99999-22-40-33-8-7-10-10-17-17-8-7-12-8-20-16-57.00001-52-117.00001-143.0001-147.00001-211.0001-123.00001-297.9999 14-598.9999 181.00001-839.9999l112.00005-144.0001c70-80 94.00005-105 179.00005-188.9999 132-133 309-265.0001 460.9999-372.0001 114.9999-82 259.9999-173.0001 385-241.00005 10.9999-7 21-11.99998 31-17.99998 12-8 22.9999-11 34.9999-19l204-109c25.0001-11 49.0001-21 71.0001-33l509-221c467-182 995.0001-322 1490.0001-383l189-20c28-4 69-4 97-8 39-6 258-11 301.0001-11 376.9999 0 795 52 1108 238 52 31 100 65 141 106 9 8 12 9 21 16 13 14 22 26 34 39 9 8 10 10 16 17 180 224 175 467.99993 68 731.00003-10 25-20 47.0001-32 70-35 69-78.0001 133-121.0001 195-6.9999 11-11.9999 18-19.9999 29.0001-28 40-59 77.9999-92 114-70.0001 80-94 105-179 188.9999-34 35-74 66-110.0001 100-105.9999 100.0001-228 185-349 271-130.9999 97.0001-275 176-416 260.0001l-169 90c-260 130-373 181-647 290-151.0001 61-308.0001 114-464 160-281 83-553.0001 150-845 199.0001-232.0001 38.9999-497.0001 65.9999-767.0001 65.9999zm4438.0002-2306.0002V833.62147c-6-62-22-119-48-174-15-32-31-63-50-92-37-56-82-113-134.0001-154-109.9999-84-173.9999-130-312.9999-186-19-7-36-15-53-21-110-40-220.0001-71-339-91l-251.0001-35-124-9h-447.9999l-56.0001 2c-66 7-135 10-202 17-258 27-492 70-741.0001 124-116.9999 26-229 56-343.9999 89-112 32-224.0001 67-332.0001 103-133 44-346 122-472 178l-588 278c-93 49-186 104-274.0001 157.99993L1576.4 1105.6215c-22 14-41.0001 27-64 42l-126.9999 89.0001c-83 56.9999-289 219-360 290.9999l-27.00005 24c-53 47-114.0001 115-162.00005 165l-148.00001 176c-72 95-136 196-186.00001 305-46 101-87 227.0001-87 346.0001 0 108 10 201 53 288.9999 22 48.0001 48.00001 92.0001 79 135.0001l33 40c129.00001 132 266.00003 214 439.00012 279 141 51 309 93 461.9999 110 40 4 87.9999 11 127.9999 15 44.0001 6 93.0001 5 134.0001 11 50 7 278.9999 4 342 4l153-7c66-6 133-10 200-17 258-28 492-71 742-125 61-13 115.0001-27 173-42 196.0001-48 391-113 582.0001-176 26-8.0001 55-21 81-29 77-27 230-86 311-122 14-6 24-10 38-16l261-118 358.0001-183c92-49.0001 182.9999-104.0001 269.9999-161 25-16 45.0001-27.0001 69.0001-43 22.9999-15.0001 41.9999-28 63.9999-42.0001l158.0001-112.9999c12-7.0001 22.9999-15 32.9999-22 41.0001-33 81.0001-63.0001 122.0001-96.0001l88-72c26.9999-25.9999 57.9999-49.9999 85.9999-77 5.0001-5 8.0001-9 14.0001-13.9999 51-46 101-98 151-148l88-98c7-7.0001 7-10.0001 14-16 68-78.0001 127-164.0001 179.9999-253.0001 69.0001-111 138.0001-261 158.0001-406.0001z" clip-rule="evenodd" image-rendering="optimizeQuality" shape-rendering="geometricPrecision" text-rendering="geometricPrecision"/>
  <path class="team-modal_shadow" fill="#000" fill-opacity=".38544" fill-rule="evenodd" stroke-width="1" d="M569.40002 2634.9575v49.9999c4 85.0001 16.0001 142 52.0001 226.0001 24 59 61 118 106 163 33 35 67 68 104 97 63.9999 51 139 88 210.99998 125l95 38c108 37 204 64 317.9999 86 118 22 238.9999 32 359 42l49.9999 3H2130.4l153-6c176-10 371-36 544-66 202-33 387-79 581-127.9999 236.0001-60.0001 470.0001-142.0001 687.0001-227.0001 234-91 412-177.0001 628-285.0001 111-54.9999 220.0001-117.9999 324-182 23.0001-13.9999 42-25.9999 62-38.9999 21-14 43-26.0001 64-40 81-53.0001 162.0001-109.0001 239.0001-167.0001l115-88.9999c42-33 99.9999-79 136.9999-116.0001 24-25.9999 53.0001-46.9999 77-71.9999 36.0001-34 68.0001-66.0001 102.0001-101 110-114.0001 205-242.0001 284-377l52-101.0001c42-86 79-205 84-304v-68.9999c-4-85-16-140.99987-52-225.99987-19-47-45-87-74-125-7-9-8.0001-11-15-19-8.0001-8-9-11-18-19-32-35-66-68-103-97-77-61-168.0001-108-258-145-84-33-166.0001-58-253-79.99999-154.0001-38-315-53-472.0001-66l-58.9999-4h-220.0001l-282 14c-31 3-65 8-94 10-190 12-521.0001 73.99999-697 116.99999-55.0001 13-110.0001 26-163.0001 40l-160 43c-210.9999 59-411 128-605.9999 204-234.0001 91-412.0001 177-628.0001 284.99987l-197 106.9999c-44 26-84 48-128.0001 75-22 13-40.9999 26-60.9999 38l-124.0001 81c-20.9999 14-38.9999 28-60.9999 42-21 14-39 27-59.0001 41-8.9999 7.0001-16.9999 13-28.9999 21l-144.9999 112c-50 41.0001-116 95-163 139l-51 49c-36 34-68 66-101.99998 101l-95.0001 109.0001c-56.9999 63.9999-103.9999 133-149.9999 202.9999-36 52-63 110-91 166-11 20.0001-22.0001 49-30 70.0001-10 25.9999-17.0001 51-25.0001 79-12.9999 41.9999-25 99-29 152v11z" class="fil1" clip-rule="evenodd" filter="url(#filter29)" image-rendering="optimizeQuality" shape-rendering="geometricPrecision" text-rendering="geometricPrecision"/>
  <path class="team-modal_front" fill="#fefefe" fill-rule="evenodd" stroke-width="1" d="M551.39998 2532.6216v49.9999c4 85.0001 16.00001 142 52.00001 226.0001 24 59 61 118 106 163 33.00001 35 67 68 104 97 63.99996 51 139.00006 88 211.00011 125l95 38c108 37 204 64 317.9999 86 118 22 238.9999 32 359 42l49.9999 3H2112.4l153-6c176-10 371-36 544-66 202-33 387-79 581-127.9999 236.0001-60.0001 470.0001-142.0001 687.0001-227.0001 234-91 412-177.0001 628-285.0001 111-54.9999 220.0001-117.9999 324-182 23.0001-13.9999 42-25.9999 62-38.9999 21-14 43-26.0001 64-40 81-53.0001 162.0001-109.0001 239.0001-167.0001l115-88.9999c42-33 99.9999-79 136.9999-116.0001 24-25.9999 53.0001-46.9999 77-71.9999 36.0001-34 68.0001-66.0001 102.0001-101 110-114.0001 205-242.0001 284-377l52-101.0001c42-86 79-205 84-304.0001v-68.99995c-4-84.99998-16-140.99998-52-225.99998-19-47-45-87-74-125-7-9-8.0001-11-15-19-8.0001-8-9-11-18-19-32-35-66-68-103-97-77-61-168.0001-108-258-145-84-33-166.0001-58-253-80-154.0001-38-315-53-472.0001-66l-58.9999-4h-220.0001l-282 14c-31 3-65 8-94 10-190 12-521.0001 74-697 117-55.0001 13-110.0001 26-163.0001 40l-160 43c-210.9999 59-411 128-605.9999 204-234.0001 91-412.0001 177-628.0001 285l-197 106.99993c-44 26-84 48.0001-128.0001 75.0001-22 13-40.9999 26-60.9999 38l-124.0001 81c-20.9999 14-38.9999 28-60.9999 42-21 14-39 27-59.0001 41-8.9999 7.0001-16.9999 13-28.9999 21l-144.9999 112c-50 41.0001-116 95-163 139l-51 49c-36 34-68 66-102.00005 101l-95.0001 109.0001c-56.99995 63.9999-103.99996 133-149.99996 202.9999-36 52-63 110-91 166-11 20.0001-22.00001 49-30 70.0001-10 25.9999-17.00001 51-25.00001 79-12.99999 41.9999-25 99-29 152v11z" class="fil1" clip-rule="evenodd" image-rendering="optimizeQuality" shape-rendering="geometricPrecision" text-rendering="geometricPrecision"/>
</svg>
