<?xml version="1.0" encoding="UTF-8" standalone="no"?>
<!-- Creator: CorelDRAW X7 -->

<svg
   xmlns:dc="http://purl.org/dc/elements/1.1/"
   xmlns:cc="http://creativecommons.org/ns#"
   xmlns:rdf="http://www.w3.org/1999/02/22-rdf-syntax-ns#"
   xmlns:svg="http://www.w3.org/2000/svg"
   xmlns="http://www.w3.org/2000/svg"
   xmlns:sodipodi="http://sodipodi.sourceforge.net/DTD/sodipodi-0.dtd"
   xmlns:inkscape="http://www.inkscape.org/namespaces/inkscape"
   xml:space="preserve"
   width="173.54724mm"
   height="96.008751mm"
   version="1.1"
   style="clip-rule:evenodd;fill-rule:evenodd;image-rendering:optimizeQuality;shape-rendering:geometricPrecision;text-rendering:geometricPrecision"
   viewBox="0 0 6832.7998 3779.9046"
   id="svg22"
   sodipodi:docname="team_modal.svg"
   inkscape:version="0.92.4 (5da689c313, 2019-01-14)"><metadata
   id="metadata26"><rdf:RDF><cc:Work
       rdf:about=""><dc:format>image/svg+xml</dc:format><dc:type
         rdf:resource="http://purl.org/dc/dcmitype/StillImage" /><dc:title /></cc:Work></rdf:RDF></metadata><sodipodi:namedview
   pagecolor="#ffffff"
   bordercolor="#666666"
   borderopacity="1"
   objecttolerance="10"
   gridtolerance="10"
   guidetolerance="10"
   inkscape:pageopacity="0"
   inkscape:pageshadow="2"
   inkscape:window-width="1366"
   inkscape:window-height="705"
   id="namedview24"
   showgrid="false"
   units="mm"
   fit-margin-top="0"
   fit-margin-left="0"
   fit-margin-right="0"
   fit-margin-bottom="0"
   inkscape:zoom="0.95855893"
   inkscape:cx="402.00578"
   inkscape:cy="160.85283"
   inkscape:window-x="-8"
   inkscape:window-y="-8"
   inkscape:window-maximized="1"
   inkscape:current-layer="svg22" />
 <defs
   id="defs12">
  <style
   type="text/css"
   id="style10">
   <![CDATA[
    .str0 {stroke:#373435;stroke-width:7.87402}
    .fil0 {fill:#4B4B4D}
    .fil1 {fill:#FEFEFE}
    .fil2 {fill:white}
   ]]>
  </style>
 
  
  
  
  
 <filter
   style="color-interpolation-filters:sRGB"
   inkscape:label="Blur"
   id="filter29"><feGaussianBlur
     stdDeviation="67.719999999999999"
     result="blur"
     id="feGaussianBlur27" /></filter></defs>
 
<path
   style="clip-rule:evenodd;fill:#ffffff;fill-rule:evenodd;stroke-width:1;image-rendering:optimizeQuality;shape-rendering:geometricPrecision;text-rendering:geometricPrecision"
   inkscape:connector-curvature="0"
   id="team-back"
   d="m 2041.4,3336.6216 c -424,0 -760.9999,-56.9999 -1066.99995,-212 l -90.0001,-54 c -12.9999,-10 -26.99995,-19.0001 -40.99995,-29 -15,-12 -25.99999,-22 -40,-33 -8,-7 -10,-10 -17,-17 -8,-7 -12,-8 -20,-16 -57.00001,-52 -117.00001,-143.0001 -147.00001,-211.0001 -123.00001,-297.9999 14,-598.9999 181.00001,-839.9999 l 112.00005,-144.0001 c 70,-80 94.00005,-105 179.00005,-188.9999 132,-133 309,-265.0001 460.9999,-372.0001 114.9999,-82 259.9999,-173.0001 385,-241.00005 10.9999,-7 21,-11.99998 31,-17.99998 12,-8 22.9999,-11 34.9999,-19 l 204,-109 c 25.0001,-11 49.0001,-21 71.0001,-33 l 509,-221 c 467,-182 995.0001,-322 1490.0001,-383 l 189,-20 c 28,-4 69,-4 97,-8 39,-6 258,-11 301.0001,-11 376.9999,0 795,52 1108,238 52,31 100,65 141,106 9,8 12,9 21,16 13,14 22,26 34,39 9,8 10,10 16,17 180,224 175,467.99993 68,731.00003 -10,25 -20,47.0001 -32,70 -35,69 -78.0001,133 -121.0001,195 -6.9999,11 -11.9999,18 -19.9999,29.0001 -28,40 -59,77.9999 -92,114 -70.0001,80 -94,105 -179,188.9999 -34,35 -74,66 -110.0001,100 -105.9999,100.0001 -228,185 -349,271 -130.9999,97.0001 -275,176 -416,260.0001 l -169,90 c -260,130 -373,181 -647,290 -151.0001,61 -308.0001,114 -464,160 -281,83 -553.0001,150 -845,199.0001 C 2576.4,3309.6216 2311.4,3336.6216 2041.4,3336.6216 Z M 6479.4002,1030.6214 v -186.99993 -10 c -6,-62 -22,-119 -48,-174 -15,-32 -31,-63 -50,-92 -37,-56 -82,-113 -134.0001,-154 -109.9999,-84 -173.9999,-130 -312.9999,-186 -19,-7 -36,-15 -53,-21 -110,-40 -220.0001,-71 -339,-91 l -251.0001,-34.999997 -124,-9 h -447.9999 l -56.0001,2 c -66,7 -135,10 -202,17 -258,26.999997 -492,69.999997 -741.0001,123.999997 -116.9999,26 -229,56 -343.9999,89 -112,32 -224.0001,67 -332.0001,103 -133,44 -346,122 -472,178 l -588,278 c -93,49 -186,104 -274.0001,157.99993 L 1576.4,1105.6215 c -22,14 -41.0001,27 -64,42 l -126.9999,89.0001 c -83,56.9999 -289,219 -360,290.9999 l -27.00005,24 c -53,47 -114.0001,115 -162.00005,165 l -148.00001,176 c -72,95 -136,196 -186.00001,305 -46,101 -87,227.0001 -87,346.0001 0,108 10,201 53,288.9999 22,48.0001 48.00001,92.0001 79,135.0001 l 33,40 c 129.00001,132 266.00003,214 439.00012,279 141,51 309,93 461.9999,110 40,4 87.9999,11 127.9999,15 44.0001,6 93.0001,5 134.0001,11 50,7 278.9999,4 342,4 l 153,-7 c 66,-6 133,-10 200,-17 258,-28 492,-71 742,-125 61,-13 115.0001,-27 173,-42 196.0001,-48 391,-113 582.0001,-176 26,-8.0001 55,-21 81,-29 77,-27 230,-86 311,-122 14,-6 24,-10 38,-16 l 261,-118 358.0001,-183 c 92,-49.0001 182.9999,-104.0001 269.9999,-161 25,-16 45.0001,-27.0001 69.0001,-43 22.9999,-15.0001 41.9999,-28 63.9999,-42.0001 l 158.0001,-112.9999 c 12,-7.0001 22.9999,-15 32.9999,-22 41.0001,-33 81.0001,-63.0001 122.0001,-96.0001 l 88,-72 c 26.9999,-25.9999 57.9999,-49.9999 85.9999,-77 5.0001,-5 8.0001,-9 14.0001,-13.9999 51,-46 101,-98 151,-148 l 88,-98 c 7,-7.0001 7,-10.0001 14,-16 68,-78.0001 127,-164.0001 179.9999,-253.0001 69.0001,-111 138.0001,-261 158.0001,-406.0001 z"
   class="fil2"
   inkscape:label="#path19" /><path
   inkscape:label="#path17"
   class="fil1"
   d="m 569.40002,2634.9575 v 11 10 10 9 9.9999 c 4,85.0001 16.0001,142 52.0001,226.0001 24,59 61,118 106,163 33,35 67,68 104,97 63.9999,51 139,88 210.99998,125 l 95,38 c 108,37 204,64 317.9999,86 118,22 238.9999,32 359,42 l 49.9999,3 H 1878.4 2114.3999 2130.4 l 153,-6 c 176,-10 371,-36 544,-66 202,-33 387,-79 581,-127.9999 236.0001,-60.0001 470.0001,-142.0001 687.0001,-227.0001 234,-91 412,-177.0001 628,-285.0001 111,-54.9999 220.0001,-117.9999 324,-182 23.0001,-13.9999 42,-25.9999 62,-38.9999 21,-14 43,-26.0001 64,-40 81,-53.0001 162.0001,-109.0001 239.0001,-167.0001 l 115,-88.9999 c 42,-33 99.9999,-79 136.9999,-116.0001 24,-25.9999 53.0001,-46.9999 77,-71.9999 36.0001,-34 68.0001,-66.0001 102.0001,-101 110,-114.0001 205,-242.0001 284,-377 l 52,-101.0001 c 42,-86 79,-205 84,-304 v -9 -10 -11 -10 -10 -8.9999 -10 c -4,-85 -16,-140.99987 -52,-225.99987 -19,-47 -45,-87 -74,-125 -7,-9 -8.0001,-11 -15,-19 -8.0001,-8 -9,-11 -18,-19 -32,-35 -66,-68 -103,-97 -77,-61 -168.0001,-108 -258,-145 -84,-33 -166.0001,-58 -253,-79.99999 -154.0001,-38 -315,-53 -472.0001,-66 l -58.9999,-4 h -16 -184.0001 -20 l -282,14 c -31,3 -65,8 -94,10 -190,12 -521.0001,73.99999 -697,116.99999 -55.0001,13 -110.0001,26 -163.0001,40 l -160,43 c -210.9999,59 -411,128 -605.9999,204 -234.0001,91 -412.0001,177 -628.0001,284.99987 l -197,106.9999 c -44,26 -84,48 -128.0001,75 -22,13 -40.9999,26 -60.9999,38 l -124.0001,81 c -20.9999,14 -38.9999,28 -60.9999,42 -21,14 -39,27 -59.0001,41 -8.9999,7.0001 -16.9999,13 -28.9999,21 l -144.9999,112 c -50,41.0001 -116,95 -163,139 l -51,49 c -36,34 -68,66 -101.99998,101 l -95.0001,109.0001 c -56.9999,63.9999 -103.9999,133 -149.9999,202.9999 -36,52 -63,110 -91,166 -11,20.0001 -22.0001,49 -30,70.0001 -10,25.9999 -17.0001,51 -25.0001,79 -12.9999,41.9999 -25,99 -29,152 v 11 z"
   id="shadow"
   inkscape:connector-curvature="0"
   style="clip-rule:evenodd;fill:#666666;fill-rule:evenodd;stroke-width:1;filter:url(#filter29);image-rendering:optimizeQuality;shape-rendering:geometricPrecision;text-rendering:geometricPrecision;fill-opacity:0.38543898" /><path
   style="clip-rule:evenodd;fill:#fefefe;fill-rule:evenodd;stroke-width:1;image-rendering:optimizeQuality;shape-rendering:geometricPrecision;text-rendering:geometricPrecision"
   inkscape:connector-curvature="0"
   id="team-fron"
   d="m 551.39998,2532.6216 v 11 10 10 9 9.9999 c 4,85.0001 16.00001,142 52.00001,226.0001 24,59 61,118 106,163 33.00001,35 67,68 104,97 63.99996,51 139.00006,88 211.00011,125 l 95,38 c 108,37 204,64 317.9999,86 118,22 238.9999,32 359,42 l 49.9999,3 H 1860.4 2096.3999 2112.4 l 153,-6 c 176,-10 371,-36 544,-66 202,-33 387,-79 581,-127.9999 236.0001,-60.0001 470.0001,-142.0001 687.0001,-227.0001 234,-91 412,-177.0001 628,-285.0001 111,-54.9999 220.0001,-117.9999 324,-182 23.0001,-13.9999 42,-25.9999 62,-38.9999 21,-14 43,-26.0001 64,-40 81,-53.0001 162.0001,-109.0001 239.0001,-167.0001 l 115,-88.9999 c 42,-33 99.9999,-79 136.9999,-116.0001 24,-25.9999 53.0001,-46.9999 77,-71.9999 36.0001,-34 68.0001,-66.0001 102.0001,-101 110,-114.0001 205,-242.0001 284,-377 l 52,-101.0001 c 42,-86 79,-205 84,-304.0001 v -9 -10 -11 -10 -10 -9 -9.99995 c -4,-84.99998 -16,-140.99998 -52,-225.99998 -19,-47 -45,-87 -74,-125 -7,-9 -8.0001,-11 -15,-19 -8.0001,-8 -9,-11 -18,-19 -32,-35 -66,-68 -103,-97 -77,-61 -168.0001,-108 -258,-145 -84,-33 -166.0001,-58 -253,-80 -154.0001,-38 -315,-53 -472.0001,-66 l -58.9999,-4 h -16 -184.0001 -20 l -282,14 c -31,3 -65,8 -94,10 -190,12 -521.0001,74 -697,117 -55.0001,13 -110.0001,26 -163.0001,40 l -160,43 c -210.9999,59 -411,128 -605.9999,204 -234.0001,91 -412.0001,177 -628.0001,285 l -197,106.99993 c -44,26 -84,48.0001 -128.0001,75.0001 -22,13 -40.9999,26 -60.9999,38 l -124.0001,81 c -20.9999,14 -38.9999,28 -60.9999,42 -21,14 -39,27 -59.0001,41 -8.9999,7.0001 -16.9999,13 -28.9999,21 l -144.9999,112 c -50,41.0001 -116,95 -163,139 l -51,49 c -36,34 -68,66 -102.00005,101 l -95.0001,109.0001 c -56.99995,63.9999 -103.99996,133 -149.99996,202.9999 -36,52 -63,110 -91,166 -11,20.0001 -22.00001,49 -30,70.0001 -10,25.9999 -17.00001,51 -25.00001,79 -12.99999,41.9999 -25,99 -29,152 v 11 z"
   class="fil1"
   inkscape:label="#path17" /></svg>