<?xml version="1.0" standalone="no"?>
<!DOCTYPE svg PUBLIC "-//W3C//DTD SVG 20010904//EN"
 "http://www.w3.org/TR/2001/REC-SVG-20010904/DTD/svg10.dtd">
<svg version="1.0" xmlns="http://www.w3.org/2000/svg"
 width="369.000000pt" height="369.000000pt" viewBox="0 0 369.000000 369.000000"
 preserveAspectRatio="xMidYMid meet">
<metadata>
Created by potrace 1.11, written by Peter Selinger 2001-2013
</metadata>
<g transform="translate(0.000000,369.000000) scale(0.100000,-0.100000)"
fill="#000000" stroke="none">
<path d="M2460 2855 c-492 -54 -954 -192 -1409 -421 -314 -158 -530 -305 -722
-494 -164 -162 -254 -290 -305 -435 -25 -75 -28 -211 -4 -279 69 -202 254
-312 640 -381 58 -11 460 -14 545 -4 344 38 685 119 1014 241 951 353 1587
961 1452 1388 -64 200 -276 328 -641 386 -78 12 -459 12 -570 -1z m490 -56
c608 -71 812 -428 490 -858 -344 -460 -1182 -888 -1985 -1015 -158 -25 -164
-25 -280 -33 -444 -28 -781 44 -951 205 -178 167 -169 399 26 661 317 427
1075 834 1845 989 119 24 152 30 225 37 30 4 61 8 68 10 7 3 68 8 135 11 67 4
123 8 125 9 6 5 216 -6 302 -16z"/>
<path d="M1305 2303 c-114 -23 -208 -111 -199 -188 5 -48 23 -71 101 -136 82
-68 107 -106 98 -149 -14 -63 -109 -122 -199 -122 -68 -1 -92 13 -119 70 -25
53 -56 65 -88 36 -39 -35 -17 -79 61 -120 28 -15 56 -19 135 -19 88 0 107 4
160 28 113 53 170 136 145 212 -10 30 -38 60 -158 168 -47 42 -55 83 -26 125
23 34 87 62 139 62 66 0 98 -33 93 -98 -2 -37 0 -47 14 -50 13 -2 18 7 24 45
4 26 13 65 20 86 7 20 10 37 6 38 -4 0 -16 2 -27 5 -31 6 -158 11 -180 7z"/>
<path d="M1905 2298 c-38 -14 -92 -49 -128 -83 -38 -36 -77 -118 -126 -265
-23 -69 -48 -133 -55 -142 -11 -15 -75 -48 -91 -48 -21 0 -25 -2 -25 -13 0
-10 30 -13 128 -12 70 0 195 -4 277 -8 145 -8 151 -8 195 15 50 26 73 68 59
106 -6 16 -16 22 -38 22 -33 0 -46 -22 -31 -50 13 -25 3 -49 -25 -56 -13 -3
-69 2 -125 12 -69 11 -127 15 -176 11 l-73 -7 19 33 c10 17 42 97 69 176 57
160 85 216 132 255 38 32 73 33 124 1 46 -28 68 -31 84 -11 42 51 -99 98 -194
64z"/>
<path d="M2557 2296 c-105 -28 -186 -119 -172 -193 7 -38 35 -71 132 -151 82
-67 90 -124 27 -184 -41 -38 -100 -60 -161 -60 -66 -1 -96 19 -122 77 -16 36
-25 45 -45 45 -62 0 -74 -63 -20 -108 49 -41 109 -56 197 -50 144 10 261 82
286 176 16 58 -4 98 -87 170 -100 87 -112 101 -112 137 0 64 69 115 154 115
36 0 52 -6 71 -24 21 -22 24 -31 19 -75 -5 -46 -4 -51 14 -51 16 0 21 9 27 48
4 26 13 64 20 85 7 20 10 37 6 38 -3 0 -15 2 -26 5 -53 11 -165 11 -208 0z"/>
<path d="M923 1593 c-15 -5 -38 -72 -28 -81 4 -4 10 -1 12 6 3 6 11 12 18 12
7 0 15 -6 18 -12 2 -7 8 -10 12 -6 11 10 -18 86 -32 81z m4 -45 c-3 -8 -6 -5
-6 6 -1 11 2 17 5 13 3 -3 4 -12 1 -19z"/>
<path d="M998 1555 c-3 -43 -2 -45 24 -45 50 0 63 71 15 84 -34 9 -35 9 -39
-39z m48 10 c4 -8 0 -23 -7 -31 -12 -15 -14 -14 -20 7 -3 13 -4 27 -2 32 7 12
23 8 29 -8z"/>
<path d="M1100 1586 c0 -28 23 -76 36 -76 13 0 40 77 30 87 -3 3 -11 -10 -19
-28 l-13 -34 -12 33 c-11 33 -22 42 -22 18z"/>
<path d="M1210 1585 c-6 -7 -10 -26 -8 -42 2 -23 8 -29 34 -31 28 -3 32 0 36
27 2 17 1 36 -3 43 -11 17 -45 20 -59 3z m41 -15 c5 -35 2 -45 -11 -45 -9 0
-16 11 -18 28 -2 19 1 27 12 27 9 0 17 -4 17 -10z"/>
<path d="M1320 1585 c-6 -8 -10 -26 -8 -42 2 -21 9 -29 27 -31 26 -4 42 13 34
35 -7 18 -25 17 -21 -1 2 -8 -1 -16 -7 -18 -5 -2 -11 9 -13 25 -3 22 1 27 17
27 26 0 28 15 2 17 -11 1 -25 -5 -31 -12z"/>
<path d="M1433 1584 c-17 -32 -24 -74 -13 -74 5 0 10 5 10 10 0 14 28 12 33
-2 2 -7 8 -10 12 -6 10 9 0 47 -18 72 -14 19 -14 19 -24 0z m14 -36 c-3 -8 -6
-5 -6 6 -1 11 2 17 5 13 3 -3 4 -12 1 -19z"/>
<path d="M1520 1554 c0 -42 1 -44 29 -44 29 0 41 14 41 50 0 22 -12 31 -46 35
-22 2 -24 -1 -24 -41z m46 11 c7 -17 -14 -48 -26 -40 -10 6 0 55 11 55 6 0 12
-7 15 -15z"/>
<path d="M1631 1586 c-7 -8 -10 -27 -8 -43 3 -23 9 -29 35 -31 18 -2 32 0 33
5 0 4 2 19 3 31 5 42 -39 68 -63 38z m40 -13 c0 -5 2 -16 4 -25 4 -23 -15 -35
-26 -17 -14 22 -10 49 6 49 8 0 15 -3 16 -7z"/>
<path d="M1737 1593 c-14 -13 -6 -42 13 -48 11 -3 20 -11 20 -16 0 -6 -4 -8
-8 -5 -4 2 -14 0 -22 -5 -11 -7 -7 -9 15 -7 36 4 48 36 16 45 -28 7 -27 23 2
23 18 0 19 2 7 10 -18 11 -34 13 -43 3z"/>
<path d="M1902 1592 c-14 -9 -35 -73 -26 -81 3 -3 9 1 14 9 8 12 13 13 30 3
29 -19 30 -17 13 32 -8 25 -16 45 -16 45 -1 0 -8 -4 -15 -8z m18 -36 c0 -3 -4
-8 -10 -11 -5 -3 -10 -1 -10 4 0 6 5 11 10 11 6 0 10 -2 10 -4z"/>
<path d="M1998 1593 c-24 -6 -23 -40 2 -48 11 -3 20 -11 20 -17 0 -6 -9 -8
-20 -5 -11 3 -20 1 -20 -5 0 -5 12 -8 27 -6 35 4 45 37 14 45 -27 7 -27 23 0
23 11 0 17 5 14 10 -6 10 -9 11 -37 3z"/>
<path d="M2081 1592 c-19 -6 -12 -40 9 -47 11 -3 20 -11 20 -17 0 -6 -9 -8
-20 -5 -11 3 -20 1 -20 -4 0 -5 14 -9 30 -9 24 0 30 4 30 21 0 12 -8 23 -20
26 -11 3 -20 9 -20 14 0 5 9 9 20 9 11 0 20 4 20 9 0 9 -25 11 -49 3z"/>
<path d="M2175 1590 c-7 -11 -10 -68 -4 -74 2 -2 15 -6 29 -8 19 -2 26 3 34
25 7 19 7 33 0 45 -13 20 -49 28 -59 12z m43 -37 c-3 -31 -34 -40 -32 -10 3
34 4 37 20 37 11 0 14 -8 12 -27z"/>
<path d="M2285 1584 c-9 -9 -14 -27 -12 -42 3 -22 9 -27 33 -29 27 -3 27 -2 7
7 -29 12 -31 50 -3 57 11 3 20 9 20 14 0 15 -27 10 -45 -7z"/>
<path d="M2368 1573 c-4 -33 1 -63 11 -63 7 0 5 80 -3 87 -2 2 -5 -9 -8 -24z"/>
<path d="M2431 1558 c-7 -22 -9 -43 -5 -46 4 -4 9 -1 11 6 3 6 11 12 18 12 7
0 15 -6 18 -12 10 -30 18 4 8 35 -17 51 -36 53 -50 5z m26 -10 c-3 -8 -6 -5
-6 6 -1 11 2 17 5 13 3 -3 4 -12 1 -19z"/>
<path d="M2530 1555 c0 -41 2 -45 24 -45 29 0 47 20 43 48 -4 27 -9 32 -41 38
-25 4 -26 3 -26 -41z m45 4 c5 -13 2 -25 -6 -30 -17 -10 -28 7 -22 32 7 25 20
24 28 -2z"/>
<path d="M2643 1588 c-5 -7 -9 -26 -9 -43 1 -26 5 -30 32 -33 26 -3 32 1 36
21 10 52 -32 90 -59 55z m40 -20 c6 -20 -4 -49 -17 -45 -18 6 -20 57 -2 57 8
0 16 -6 19 -12z"/>
<path d="M2753 1593 c-20 -7 -15 -41 7 -48 11 -3 20 -11 20 -17 0 -6 -9 -8
-20 -5 -11 3 -20 1 -20 -5 0 -5 12 -8 27 -6 35 4 45 37 14 45 -28 7 -27 23 1
23 12 0 18 3 14 7 -9 9 -27 11 -43 6z"/>
</g>
</svg>
